<?xml version="1.0" encoding="UTF-8"?>
<!DOCTYPE svg PUBLIC "-//W3C//DTD SVG 1.1//EN" "http://www.w3.org/Graphics/SVG/1.1/DTD/svg11.dtd">
<!-- Creator: CorelDRAW 2020 (64-Bit) -->
<svg xmlns="http://www.w3.org/2000/svg" xml:space="preserve" width="30mm" height="22mm" version="1.1" style="shape-rendering:geometricPrecision; text-rendering:geometricPrecision; image-rendering:optimizeQuality; fill-rule:evenodd; clip-rule:evenodd"
viewBox="0 0 3000 2200"
 xmlns:xlink="http://www.w3.org/1999/xlink"
 xmlns:xodm="http://www.corel.com/coreldraw/odm/2003">
 <defs>
  <style type="text/css">
   <![CDATA[
    .str0 {stroke:black;stroke-width:52.92;stroke-miterlimit:22.9256}
    .str2 {stroke:black;stroke-width:35.28;stroke-miterlimit:22.9256}
    .str1 {stroke:black;stroke-width:20;stroke-miterlimit:22.9256}
    .fil3 {fill:none}
    .fil2 {fill:black}
    .fil4 {fill:black}
    .fil1 {fill:aqua}
    .fil0 {fill:yellow}
   ]]>
  </style>
 </defs>
 <g id="Слой_x0020_1">
  <metadata id="CorelCorpID_0Corel-Layer"/>
  <path class="fil0" d="M2687.3 1833.87l67.67 -70.47 -67.67 70.47zm157.45 -518.45l-575.65 587.61 575.65 -587.61zm7.78 -432.88l-874.51 894.68 874.51 -894.68zm-57.76 -361.08l-1248.06 1272.06 1248.06 -1272.06zm-217.55 -203.01l-1475.77 1503.47 1475.77 -1503.47zm-370.43 -34.82l-1505.17 1532.43 1505.17 -1532.43zm-277.26 -92.64l-1509.84 1536.34 1509.84 -1536.34zm-332.56 -37.37l-1365.73 1380.74 1365.73 -1380.74zm-346.2 -23.66l-1116.82 1137.52 1116.82 -1137.52zm-364.57 17.42l-799.19 810.63 799.19 -810.63zm-332.92 -6.26l-490.09 499.62 490.09 -499.62zm2246.39 1405.61l-357.64 365.07 357.64 -365.07zm61.31 -487.14l-735.89 752.87 735.89 -752.87zm-31.99 -388l-1081.6 1102.4 1081.6 -1102.4zm-118.74 -303.74l-1422.37 1449.04 1422.37 -1449.04zm-370.43 -34.87l-1467.01 1493.58 1467.01 -1493.58zm-265.89 -104.23l-1527.81 1554.63 1527.81 -1554.63zm-310.86 -59.55l-1453.79 1469.78 1453.79 -1469.78zm-338.27 -31.64l-1250.56 1273.76 1250.56 -1273.76zm-365.51 18.36l-950.24 963.84 950.24 -963.84zm-323.76 -15.55l-663.33 676.22 663.33 -676.22zm-378.47 36.23l-237.19 241.14 237.19 -241.14zm-239.07 243.06l-29.21 29.7 29.21 -29.7z"/>
  <polygon class="fil1 str0" points="48.25,231.14 1177.76,231.14 1808.09,231.14 2937.61,231.14 2937.61,2160.2 48.25,2160.2 "/>
  <rect class="fil2 str1" x="1177.76" y="24.68" width="630.33" height="198.83"/>
  <path class="fil3 str2" d="M1195.09 746.96l595.67 0m140.21 -146.8c-67.49,0.1 -143.9,60.92 -140.21,146.8 3.71,86.5 78.23,128.9 144.04,128.48m-879.91 -275.28c67.49,0.1 143.9,60.92 140.2,146.8 -3.71,86.5 -78.22,128.9 -144.03,128.48"/>
  <path class="fil4" d="M1188.23 1412.75c107.95,3.78 208.02,47.49 290.2,117.45 -117.44,103.63 -194.92,254.22 -202.41,420.32l19.29 -1.14c17.15,-158.45 93.3,-303.62 203.19,-401.27 103.89,97.41 175.48,238.09 192.05,391.14l19.29 1.14c-7.24,-160.52 -79.86,-306.55 -190.74,-409.71 79.9,-64.3 175.64,-104.2 278.53,-107.8 -20.46,21.13 -33.06,49.91 -33.06,81.65 0,64.84 52.57,117.41 117.41,117.41 64.84,0 117.41,-52.57 117.41,-117.41 0.52,-74.74 -49.14,-121.6 -134.7,-117.23 -136.81,-3.8 -264.41,44.07 -365.64,125.54 -103.08,-87.61 -235.49,-139.63 -377.88,-135.67 -85.56,-4.37 -135.22,42.49 -134.7,117.23 0,64.84 52.57,117.41 117.41,117.41 64.84,0 117.41,-52.57 117.41,-117.41 0,-31.74 -12.6,-60.52 -33.06,-81.65z"/>
 </g>
</svg>
