<?xml version="1.0" encoding="UTF-8"?>
<!DOCTYPE svg PUBLIC "-//W3C//DTD SVG 1.1//EN" "http://www.w3.org/Graphics/SVG/1.1/DTD/svg11.dtd">
<!-- Creator: CorelDRAW 2020 (64-Bit) -->
<svg xmlns="http://www.w3.org/2000/svg" xml:space="preserve" width="30mm" height="22mm" version="1.1" style="shape-rendering:geometricPrecision; text-rendering:geometricPrecision; image-rendering:optimizeQuality; fill-rule:evenodd; clip-rule:evenodd"
viewBox="0 0 3000 2200"
 xmlns:xlink="http://www.w3.org/1999/xlink"
 xmlns:xodm="http://www.corel.com/coreldraw/odm/2003">
 <defs>
  <style type="text/css">
   <![CDATA[
    .str0 {stroke:black;stroke-width:52.92;stroke-miterlimit:22.9256}
    .str2 {stroke:black;stroke-width:20;stroke-miterlimit:22.9256}
    .str1 {stroke:#FFED00;stroke-width:20;stroke-miterlimit:22.9256}
    .fil2 {fill:none}
    .fil4 {fill:none;fill-rule:nonzero}
    .fil1 {fill:yellow}
    .fil0 {fill:white}
    .fil3 {fill:aqua;fill-rule:nonzero}
   ]]>
  </style>
 </defs>
 <g id="Слой_x0020_1">
  <metadata id="CorelCorpID_0Corel-Layer"/>
  <path class="fil0" d="M6680.61 -486.62c978.53,211.57 793.4,105.78 1666.15,555.38 105.78,-52.89 238.02,-132.23 370.25,-185.13 528.94,-264.47 793.4,-238.02 1295.89,-370.25 -105.79,-52.9 -2433.1,-26.45 -2935.59,-26.45 -105.78,0 -343.8,-26.45 -396.7,26.45z"/>
  <g id="_2546376913616">
   <path class="fil1 str0" d="M2932.03 1090.14c12.93,337.64 -95.77,572.06 -92.23,664.56 2.74,71.53 -364.46,182.59 -437.68,112.81 -205.89,-196.22 -608.73,-71.1 -865.21,-68.61 -422.56,4.07 -908.68,108.86 -1012.5,-543.95 -14.87,-93.54 -107.6,-665.08 -2.22,-695.92 7.23,-50.89 140.9,-171.3 172.93,-195.13 154.4,-114.81 722.59,-0.59 774.21,-51.72 34.95,-34.59 485.71,33.44 569.43,28.13 16.62,-1.06 287.41,71.29 294.65,78.19 246.13,234.71 560.78,-316.67 598.62,671.64z"/>
   <path class="fil2 str1" d="M2598.39 1854.29l234.06 -243.74m-1959.82 -1271.38l-361.15 367.16m627.41 -367.68l-620.93 632.99m874.61 -623.14l-843.24 855.32m1123.02 -866.01l-1079.29 1099.31m1341.71 -1074.28l-1235.61 1249.2m1481.33 -1208.1l-1310.57 1333.58m1515.8 -1251.71l-1282.32 1305.53m1590.4 -1299.64l-1273.29 1297.16m1423.13 -1120.43l-1077.25 1097.97m1123.01 -818.97l-780.92 798.91m785.64 -474.01l-542.49 553.75"/>
   <g>
    <path class="fil3" d="M194.01 173.3l0 670.19 -39.43 0 0 -670.19 19.72 -19.71 19.71 19.71zm-39.43 0l0 -19.71 19.72 0 -19.72 19.71zm1098.93 19.71l-1079.21 0 0 -39.42 1079.21 0 0 39.42zm-16.37 -123.58l188.84 103.87 -188.84 103.87 0 -207.74z"/>
   </g>
   <g>
    <path class="fil3" d="M154.58 2028.04l0 -670.19 39.43 0 0 670.19 -19.71 19.71 -19.72 -19.71zm19.72 19.71l-19.72 0 0 -19.71 19.72 19.71zm1079.21 0l-1079.21 0 0 -39.42 1079.21 0 0 39.42zm-16.37 -123.58l188.84 103.87 -188.84 103.87 0 -207.74z"/>
   </g>
   <circle class="fil4 str2" cx="184.14" cy="1096.02" r="147.85"/>
  </g>
 </g>
</svg>
